# xmcd
# 
# Track frame offsets:
#     150
#     11172
#     23152
#     34097
#     51422
#     66907
#     80140
#     96177
#     106442
#     119587
# 
# Disc length: 1775
# 
# Revision: 4
# Processed by: cddbd v1.5.2PL0 Copyright (c) Steve Scherf et al.
# Submitted via: BonkEnc v1.0
# 
DISCID=8b06ed0a
DTITLE=Crystal Gayle - Classic Crystal
DYEAR=1994
DGENRE=Country
TTITLE0=Somebody Loves You
TTITLE1=Don't It Make My Brown Eyes Blue
TTITLE2=Ready For The Times To Get Better
TTITLE3=You Never Miss A Real Good Thing ('Till He Says Goodbye)
TTITLE4=When I Dream
TTITLE5=I'll Do It All Over Again
TTITLE6=I'll Get Over You
TTITLE7=Wrong Road Again
TTITLE8=Talking In Your Sleep
TTITLE9=Why Have You Left The One You Left Me For
EXTD=YEAR: 1994
EXTT0=
EXTT1=
EXTT2=
EXTT3=
EXTT4=
EXTT5=
EXTT6=
EXTT7=
EXTT8=
EXTT9=
PLAYORDER=
